inDegrees=no
num_controls=7
num_derivatives=13
num_iterations=110
num_multipliers=7
num_parameters=0
num_slacks=7
num_states=26
objective=0.431228
objective_accelerations=0.050161
objective_balance=0.006766
objective_effort=0.031613
objective_height=0.341528
objective_ligament=0.001161
solver_duration=1433.999077
status=Solve_Succeeded
success=true
DataType=double
version=3
OpenSimVersion=4.5
endheader
time	/jointset/ground_pelvis/pelvis_tilt/value	/jointset/ground_pelvis/pelvis_tx/value	/jointset/ground_pelvis/pelvis_ty/value	/jointset/hip_l/hip_flexion_l/value	/jointset/hip_l/hip_adduction_l/value	/jointset/hip_l/hip_rotation_l/value	/jointset/back/lumbar_extension/value	/jointset/patellofemoral_l/patellar_flexion_l/value	/jointset/knee_l/knee_flexion_l/value	/jointset/knee_l/knee_adduction_l/value	/jointset/knee_l/knee_rotation_l/value	/jointset/ankle_l/ankle_angle_l/value	/jointset/subtalar_l/subtalar_angle_l/value	/jointset/ground_pelvis/pelvis_tilt/speed	/jointset/ground_pelvis/pelvis_tx/speed	/jointset/ground_pelvis/pelvis_ty/speed	/jointset/hip_l/hip_flexion_l/speed	/jointset/hip_l/hip_adduction_l/speed	/jointset/hip_l/hip_rotation_l/speed	/jointset/back/lumbar_extension/speed	/jointset/patellofemoral_l/patellar_flexion_l/speed	/jointset/knee_l/knee_flexion_l/speed	/jointset/knee_l/knee_adduction_l/speed	/jointset/knee_l/knee_rotation_l/speed	/jointset/ankle_l/ankle_angle_l/speed	/jointset/subtalar_l/subtalar_angle_l/speed	/forceset/tau_hip_flexion_l	/forceset/tau_hip_adduction_l	/forceset/tau_hip_rotation_l	/forceset/tau_knee_flexion_l	/forceset/tau_ankle_angle_l	/forceset/tau_subtalar_angle_l	/forceset/tau_lumbar_extension	lambda_cid13_p0	lambda_cid13_p1	lambda_cid13_p2	lambda_cid13_p3	lambda_cid13_p4	lambda_cid13_p5	lambda_cid14_p0	/jointset/ground_pelvis/pelvis_tilt/accel	/jointset/ground_pelvis/pelvis_tx/accel	/jointset/ground_pelvis/pelvis_ty/accel	/jointset/hip_l/hip_flexion_l/accel	/jointset/hip_l/hip_adduction_l/accel	/jointset/hip_l/hip_rotation_l/accel	/jointset/back/lumbar_extension/accel	/jointset/patellofemoral_l/patellar_flexion_l/accel	/jointset/knee_l/knee_flexion_l/accel	/jointset/knee_l/knee_adduction_l/accel	/jointset/knee_l/knee_rotation_l/accel	/jointset/ankle_l/ankle_angle_l/accel	/jointset/subtalar_l/subtalar_angle_l/accel	gamma_cid13_p0	gamma_cid13_p1	gamma_cid13_p2	gamma_cid13_p3	gamma_cid13_p4	gamma_cid13_p5	gamma_cid14_p0
1.5	-0.3384080825597875	-0.03098513217373781	0.764427901843823	1.176159230686786	-0.3053291189097565	0.01062055271460316	-0.3396795445278359	0.820513538555133	0.8205135385551781	-0.1732024129706441	0.1685826132564117	0.1642785906231297	-0.01977147338898018	0.4301671903150346	0.1562966744091808	0.5062869728566119	-2.101017321116325	-0.01392950263442144	-0.7035490243018924	0.5724031051576594	-2.094111665506155	-2.094111665506261	0.006953220339047772	-0.03684398936174176	-0.5475714064070591	-0.1056202505432536	-0.195103192447997	0.01834996914686823	-0.02586087496422545	-0.2537659849169626	0.09613705361278005	0.040669498305387	0.1933320827635754	-7.298451925953975	-19.21110184255078	5.888607394080466	-2.081085840419885	-607.5021461625055	-60.78959139424051	-20.29980782843118	0.5135868051779738	0.5506893505989043	-0.406443849201872	-1.354914578651928	0.6827948022671925	-0.3752089343387138	1.644181808747982	-1.367134001271977	-1.367134001272001	0.04521919878762114	-0.08417104335242619	-0.5501407168117312	0.7095263854663184	4.078155905344984e-07	3.834768521901205e-07	-2.528358891507143e-06	-2.808369837237567e-07	4.771725754752586e-07	2.377658335765184e-07	3.938434283814629e-07
1.51	-0.3340808824957434	-0.02939473696640358	0.769469432887933	1.155083361006609	-0.3054353201058412	0.003569275727062902	-0.3338744975816281	0.7995063390817101	0.7995063390817316	-0.1731344755627431	0.1682097866854134	0.1587758093765345	-0.02079357403069286	0.4352137997544591	0.1617666018904454	0.5019147082130041	-2.113864714115651	-0.007287305166274722	-0.7066198150776012	0.5885302295041029	-2.10702756106227	-2.107027561062333	0.006634111439768505	-0.0377165082487155	-0.5528858939079314	-0.09877801262652368	-0.1889176443909904	0.0178159714029458	-0.02574210600512668	-0.2509486667394908	0.09782241253285043	0.0405308331626068	0.1881734585678269	-6.531828572646759	-19.3781571086355	6.021522022101924	-2.353689874197085	-603.2116795184965	-61.07108568232868	-21.58121744880402	0.4913848039727145	0.5427227186236081	-0.4681896777156687	-1.205813043352138	0.6587912223276606	-0.2596402924435693	1.585569560623717	-1.208803841272571	-1.208803841266033	-0.07051489614914935	-0.087540083490348	-0.5072707812340777	0.6750745693359992	4.402027768734057e-07	5.14967106523178e-07	-2.633597372128274e-06	-2.834300829203506e-07	5.161870438104297e-07	3.429553204840609e-07	4.201022864246155e-07
1.52	-0.3297049789791753	-0.02775012682991002	0.7744641269044518	1.133887785119883	-0.3054743275265964	-0.003510034396886194	-0.3279104610293497	0.7783789833510277	0.7783789833510262	-0.1730697370362078	0.1678284853711213	0.1532228496520287	-0.02174655187832631	0.4399078808198044	0.1671396602410457	0.4969195673383784	-2.124958562426141	-0.0004907475685576978	-0.7091556515835741	0.6042010263717936	-2.118142916958039	-2.118142916958059	0.00631344406595114	-0.03853893802050921	-0.5576071019891676	-0.0917956917274068	-0.1827320963339846	0.01728197365902204	-0.02562333704602321	-0.2481313485620201	0.09950777145292028	0.04039216801982496	0.1830148343720781	-5.76925610173578	-19.54652287495851	6.156954646583559	-2.646935911143657	-599.0123991258804	-61.44017612249242	-22.85743168161688	0.4430811303621134	0.531315524466041	-0.5310190954054513	-1.004205640884405	0.7136668281812545	-0.2682180803914886	1.552916312997415	-1.007026069203028	-1.007026069202974	0.04490750388000148	-0.07415322031641955	-0.4314848328845053	0.737542981943717	4.86960618542749e-07	6.041556983609989e-07	-2.827177615916268e-06	-3.022666492731915e-07	5.69183655113678e-07	4.448775443536607e-07	4.553597010508835e-07
1.53	-0.325283852346577	-0.02605236439773741	0.7794058187120114	1.112589962313318	-0.3054449089186417	-0.01061164279543689	-0.3217922182526614	0.7571493575929009	0.7571493575929179	-0.1730088699841783	0.1674390177862259	0.1476255105500449	-0.02262938051123721	0.4442552241743583	0.1723869274049714	0.4913187302525178	-2.134297198432353	0.006393279073516965	-0.7110848575652331	0.6193572384694308	-2.127466733881991	-2.127466733882011	0.005870510203250758	-0.03934487328090994	-0.5617602011779623	-0.08475364918322291	-0.1765996216446092	0.01666978532942629	-0.02541514008054545	-0.2451652598513174	0.1007912126125143	0.04011235002591541	0.1778411836412487	-5.146976441253694	-19.6212907102394	6.268632384197733	-2.734347000991201	-594.8751978625533	-61.67351182070407	-24.12651006602526	0.4212797416592586	0.517475956956124	-0.589490931045548	-0.8523037820375682	0.6790114088300916	-0.1426243637316258	1.483430083682605	-0.847839220538027	-0.8478392205381633	-0.08735688838670227	-0.08171936980235407	-0.392154286675097	0.6902681718685588	5.489872815006804e-07	6.483987737976316e-07	-3.114620983069053e-06	-3.383618994795448e-07	6.37036293320508e-07	5.433283012454466e-07	5.001780820467115e-07
1.54	-0.3208211085197016	-0.02430292056500547	0.7842885271655388	1.091208030906381	-0.3053460018789442	-0.01773001375514048	-0.3155251220698896	0.735835937722225	0.7358359377222605	-0.1729521248821838	0.1670419097105468	0.1419896540912135	-0.02344124206246369	0.4482313196752017	0.1774759403529092	0.4851228965318882	-2.141780282500483	0.01340693877997294	-0.7125081638140328	0.6339717075884973	-2.134901739467815	-2.134901739467836	0.005489054058884345	-0.04006703617732887	-0.565310573358683	-0.07760227539052582	-0.1704671469552351	0.0160575969998284	-0.02520694311505729	-0.2421991711406168	0.1020746537721073	0.03983253203200324	0.1726675329104189	-4.52700712832056	-19.69906219545038	6.384684275102673	-2.85578055104476	-590.8098672710877	-62.0077795133605	-25.38713908345642	0.3688315596200432	0.4996646812684307	-0.6500184223592351	-0.6330952532678771	0.7395934410575159	-0.1670381338196029	1.444567717283273	-0.6292638015775034	-0.6292638015774924	0.05720304754679565	-0.05739874752005838	-0.3109394312696889	0.7594092316463537	5.981615447756398e-07	7.495143237868055e-07	-3.320828899192263e-06	-3.579709406826961e-07	6.963974197662076e-07	6.582347161400032e-07	5.37771837359835e-07
1.55	-0.3163204312917683	-0.02250337006119075	0.7891064218490293	1.06976022893536	-0.3051767183864312	-0.02485971508503138	-0.3091148252207996	0.7144573353065402	0.7144573353065635	-0.1728997323151029	0.1666378494745281	0.1363212353017553	-0.0241814990731926	0.4518356279553939	0.1824082935867542	0.4783653665803619	-2.147476368080385	0.02044939468953787	-0.7133017898785791	0.6479845020632611	-2.140510366792432	-2.140510366792383	0.004950812291214218	-0.04076556562259401	-0.5682669663493493	-0.07045270083498198	-0.1640944793320318	0.01497908557843306	-0.02497924759800619	-0.2398675564546185	0.1041251061955335	0.03938366038172565	0.1673366680475035	-3.681665649593408	-19.73983550303517	6.491363722113888	-3.1208432313139	-587.0090125806024	-62.36170141887421	-26.63851193044439	0.346014848579881	0.4860688357205294	-0.7020666158590382	-0.4922259300944686	0.6869324318976134	-0.01544061637250355	1.36416128763752	-0.4805223268974153	-0.4805223268867523	-0.1151550603187541	-0.07847944914366274	-0.2720568323981748	0.6924437210736861	6.325276084158711e-07	9.16156855325643e-07	-3.433439447824878e-06	-3.585850019473766e-07	7.459748478784311e-07	7.921009109073163e-07	5.670415674298427e-07
